<?xml version="1.0" standalone="no"?>
<!DOCTYPE svg PUBLIC "-//W3C//DTD SVG 1.1//EN" "http://www.w3.org/Graphics/SVG/1.1/DTD/svg11.dtd" >
<svg xmlns="http://www.w3.org/2000/svg" xmlns:xlink="http://www.w3.org/1999/xlink" version="1.1">
<metadata>
Created by FontForge 20161003 at Mon Nov 28 15:05:11 2016
 By www-data
We Are In Love (c) MiffinFonts. 2013. All Rights Reserved
</metadata>
<defs>
<font id="Northern_Lights" horiz-adv-x="1010" >
  <font-face 
    font-family="Northern_Lights"
    font-weight="400"
    font-stretch="normal"
    units-per-em="2048"
    panose-1="2 0 5 0 0 0 0 0 0 0"
    ascent="1638"
    descent="-410"
    x-height="1022"
    cap-height="1438"
    bbox="80 -400 1739 1469"
    underline-thickness="150"
    underline-position="-442"
    unicode-range="U+0020-F002"
  />
<missing-glyph horiz-adv-x="984" 
d="M80 0v1434h824v-1434h-824zM130 50h724v1334h-724v-1334zM305 1148q31 28 58 43q53 30 112 30q92 0 148 -47.5t56 -127.5q0 -49 -23 -98.5t-87 -129.5q-63 -80 -99 -132t-36 -99q0 -38 24 -133h-32q-35 97 -35 148q0 76 81.5 218t81.5 217q0 57 -33 90t-91 33
q-38 0 -69 -17q-26 -15 -56 -40v45zM369 334l57 58q11 10 20 10q10 0 22 -11l56 -60q9 -11 9 -20q0 -11 -10 -22l-56 -62q-14 -14 -21 -14q-11 0 -20 10l-61 71q-7 9 -7 18q0 10 11 22z" />
    <glyph glyph-name=".notdef" horiz-adv-x="984" 
d="M80 0v1434h824v-1434h-824zM130 50h724v1334h-724v-1334zM305 1148q31 28 58 43q53 30 112 30q92 0 148 -47.5t56 -127.5q0 -49 -23 -98.5t-87 -129.5q-63 -80 -99 -132t-36 -99q0 -38 24 -133h-32q-35 97 -35 148q0 76 81.5 218t81.5 217q0 57 -33 90t-91 33
q-38 0 -69 -17q-26 -15 -56 -40v45zM369 334l57 58q11 10 20 10q10 0 22 -11l56 -60q9 -11 9 -20q0 -11 -10 -22l-56 -62q-14 -14 -21 -14q-11 0 -20 10l-61 71q-7 9 -7 18q0 10 11 22z" />
    <glyph glyph-name=".null" horiz-adv-x="0" 
 />
    <glyph glyph-name="nonmarkingreturn" horiz-adv-x="508" 
 />
    <glyph glyph-name="space" unicode=" " horiz-adv-x="508" 
 />
    <glyph glyph-name="space" unicode="&#xa0;" horiz-adv-x="508" 
 />
    <glyph glyph-name="exclam" unicode="!" horiz-adv-x="358" 
d="M179 1433q39 0 49 -45v-1029q0 -33 -37 -47q-8 -2 -12 -2q-33 0 -47 37q-2 8 -2 12v1026q0 34 39 47q6 1 10 1zM177 213h4q57 0 89 -63q8 -21 8 -42v-3q0 -61 -61 -97q-22 -8 -37 -8h-2q-61 0 -93 72q-5 21 -5 33v3q0 66 66 99q18 6 31 6zM129 106q0 -46 46 -57h5
q35 0 48 44q1 10 1 15q0 44 -44 56h-7q-34 0 -48 -43q-1 -10 -1 -15z" />
    <glyph glyph-name="quotedbl" unicode="&#x22;" horiz-adv-x="412" 
d="M130 1433h2q32 0 46 -37q2 -7 2 -12v-309q0 -17 -14 -34q-16 -15 -36 -15q-33 0 -47 34q-3 11 -3 16v308q0 35 40 48q5 1 10 1zM281 1433h2q32 0 46 -34q3 -11 3 -16v-307q0 -36 -40 -49q-5 -1 -9 -1h-2q-32 0 -46 37q-2 4 -2 11v310q0 34 37 47q3 2 11 2z" />
    <glyph glyph-name="numbersign" unicode="#" horiz-adv-x="1337" 
d="M460 1433h2q32 0 47 -36q2 -10 2 -18v-357h315v360q0 36 39 50q7 1 11 1q35 0 48 -38q2 -12 2 -28v-345h283q35 0 47 -39q1 -6 1 -10q0 -33 -36 -48q-10 -1 -18 -1h-277v-415h280q36 0 50 -38q1 -7 1 -11q0 -34 -36 -47q-4 -2 -11 -2h-284v-345q0 -51 -31 -62
q-10 -4 -19 -4q-33 0 -48 36q-2 10 -2 18v357h-315v-360q0 -36 -39 -50q-6 -1 -10 -1q-36 0 -49 38q-2 12 -2 28v345h-283q-34 0 -47 39q-1 6 -1 10q0 33 36 48q10 1 18 1h277v415h-280q-36 0 -50 38q-1 7 -1 11q0 34 36 47q4 2 11 2h284v345q0 51 31 62q11 4 18 4zM511 924
v-415h315v415h-315z" />
    <glyph glyph-name="dollar" unicode="$" horiz-adv-x="808" 
d="M403 1433q36 0 49 -38q1 -11 1 -23v-170q87 -11 158 -39q116 -51 116 -115q0 -36 -37 -50q-11 -2 -14 -2q-30 0 -46 36q0 13 -26 25q-50 31 -151 46v-397q0 -6 30 -26q79 -61 147 -125q98 -97 98 -182q0 -62 -54 -121q-83 -76 -221 -76v-115q0 -44 -30 -57q-10 -4 -20 -4
q-33 0 -47 37q-2 10 -2 20v128q-71 15 -111 32q-52 22 -87 52q-57 50 -57 92q0 31 39 46q9 1 11 1q32 0 52 -46q27 -32 59 -45q73 -32 94 -32v367q0 5 -16 16q-89 68 -160 136q-98 100 -98 177v8q0 87 112 165q74 42 159 49l3 1v174q0 41 39 54q6 1 10 1zM178 988v-4
q0 -67 175 -204h1v325q-36 0 -100 -28q-76 -48 -76 -89zM453 577v-302h3q109 0 156 54q18 25 18 46q0 65 -169 197q-4 5 -8 5z" />
    <glyph glyph-name="percent" unicode="%" horiz-adv-x="1392" 
d="M956 1431q35 0 48 -36q2 -4 2 -11v-3q0 -13 -58 -155q-11 -30 -410 -1047q-57 -150 -64 -160q-17 -19 -39 -19q-34 0 -47 36q-2 4 -2 11v3q0 13 58 155l409 1049q57 145 64 157q18 20 39 20zM328 1359q122 0 205 -118q44 -76 44 -152q0 -119 -89 -207q-73 -64 -160 -64
q-115 0 -197 106q-51 78 -51 159v10q0 118 93 207q73 59 155 59zM129 1087q0 -115 93 -187q51 -32 98 -32h15q77 0 140 70q52 66 52 147v6q0 117 -98 189q-49 29 -93 29h-17q-83 0 -148 -83q-42 -62 -42 -139zM1063 613q115 0 198 -106q51 -78 51 -159v-11q0 -107 -80 -193
q-75 -72 -169 -72q-122 0 -205 118q-43 76 -43 152q0 119 88 207q74 64 160 64zM865 345v-5q0 -117 97 -189q49 -29 94 -29h16q84 0 148 83q43 62 43 139q0 109 -84 179q-52 40 -110 40h-12q-77 0 -140 -70q-52 -66 -52 -148z" />
    <glyph glyph-name="ampersand" unicode="&#x26;" horiz-adv-x="1121" 
d="M458 1431h7q84 0 184 -47q42 -19 102 -79q60 -65 82 -172q4 -28 5 -56q0 -185 -254 -374l-91 -69q44 -62 235 -259q42 -41 89 -85q7 0 146 116q14 9 26 9h4q33 0 47 -39q1 -7 1 -11q0 -29 -43 -59q-34 -30 -106 -84v-2l140 -124q9 -17 9 -28v-3q0 -32 -37 -46
q-7 -2 -12 -2q-23 0 -53 29l-131 116h-2q-249 -162 -425 -162q-194 0 -281 206q-20 54 -20 87v19q0 151 266 339l3 4q-198 269 -198 444v4q0 152 117 257q89 71 190 71zM251 1102q0 -148 179 -388h2q90 60 195 154q111 109 111 206v8q0 71 -50 144q-33 38 -64 58
q-84 47 -163 47q-118 0 -185 -117q-25 -56 -25 -112zM180 308v-9q0 -49 50 -125q56 -74 151 -74q140 0 350 132v3q-168 164 -235 241l-85 99q-231 -162 -231 -267z" />
    <glyph glyph-name="quotesingle" unicode="'" horiz-adv-x="260" 
d="M128 1433h2q33 0 47 -34q3 -11 3 -16v-307q0 -36 -40 -49q-5 -1 -10 -1h-2q-32 0 -46 37q-2 4 -2 11v310q0 34 37 47q4 2 11 2z" />
    <glyph glyph-name="parenleft" unicode="(" horiz-adv-x="777" 
d="M648 1431q32 0 46 -37l3 -13q0 -31 -35 -47q-10 -2 -80 -8q-113 -21 -184 -79q-51 -41 -81 -82q-43 -56 -68 -113q-71 -158 -71 -343q0 -256 129 -439q45 -62 107 -104q46 -30 104 -49q58 -17 135 -17q26 -7 37 -25q5 -11 7 -25q0 -33 -38 -48q-7 -2 -12 -2h-15
q-161 0 -302 104q-71 61 -101 105q-53 74 -76 130q-34 76 -52 160q-21 100 -21 158v104q0 99 47 255q27 74 63 139q32 55 90 118q59 58 107 87q125 71 261 71z" />
    <glyph glyph-name="parenright" unicode=")" horiz-adv-x="777" 
d="M389 1360q49 -29 108 -87q58 -63 90 -118q36 -65 63 -139q47 -156 47 -255v-104q0 -58 -21 -158q-18 -84 -52 -160q-23 -56 -76 -130q-30 -44 -102 -105q-140 -104 -301 -104h-15q-5 0 -12 2q-38 15 -38 48q2 14 7 25q11 18 37 25q77 0 135 17q58 19 103 49
q62 42 108 104q129 183 129 439q0 185 -71 343q-25 57 -68 113q-31 41 -82 82q-71 58 -183 79q-70 6 -80 8q-35 16 -35 47l3 13q14 37 46 37q136 0 260 -71z" />
    <glyph glyph-name="asterisk" unicode="*" horiz-adv-x="630" 
d="M315 1430q37 0 47 -43v-65q5 0 76 56q46 36 59 36q1 1 5 1q33 0 46 -35q2 -9 2 -12v-1q0 -29 -46 -57l-109 -84l140 -108q15 -14 15 -35q0 -31 -37 -45l-10 -1q-21 0 -64 37q-71 54 -76 56h-1v-61q0 -34 -37 -46q-5 -1 -10 -1q-37 0 -47 43v65q-5 0 -76 -56
q-46 -36 -58 -36q-2 -1 -6 -1q-33 0 -46 35q-2 9 -2 12v1q0 29 46 57l110 84q-1 2 -139 106q-17 15 -17 37q0 31 38 45l9 1q21 0 64 -37q72 -54 76 -56h1v62q0 32 38 45q5 1 9 1z" />
    <glyph glyph-name="plus" unicode="+" horiz-adv-x="941" 
d="M471 1026q33 0 43 -37q1 -4 1 -8v-323h303q31 0 43 -36v-9q0 -35 -40 -45h-306v-324q0 -31 -35 -43q-5 -1 -9 -1q-34 0 -44 37q-1 4 -1 8v323h-302q-31 0 -43 36q-1 5 -1 9q0 34 39 45h307v324q0 31 36 43q5 1 9 1z" />
    <glyph glyph-name="comma" unicode="," horiz-adv-x="328" 
d="M130 207q34 0 54 -43q31 -47 49 -109q15 -51 15 -80v-64q0 -65 -53 -180q-30 -62 -54 -62q-5 -2 -10 -2q-36 0 -50 41l-1 10q0 13 33 72q37 81 37 153q0 95 -66 196q-3 9 -4 19q0 29 33 46q9 3 17 3z" />
    <glyph glyph-name="hyphen" unicode="-" horiz-adv-x="615" 
d="M121 580h374q28 0 39 -32q1 -4 1 -8q0 -31 -37 -40h-379q-27 0 -38 32q-1 4 -1 8q0 30 34 39q3 1 7 1z" />
    <glyph glyph-name="hyphen" unicode="&#xad;" horiz-adv-x="615" 
d="M121 580h374q28 0 39 -32q1 -4 1 -8q0 -31 -37 -40h-379q-27 0 -38 32q-1 4 -1 8q0 30 34 39q3 1 7 1z" />
    <glyph glyph-name="period" unicode="." horiz-adv-x="407" 
d="M205 247q74 0 114 -79q8 -27 8 -46q0 -74 -79 -114q-27 -8 -46 -8q-74 0 -114 79q-8 27 -8 46q0 74 79 114q27 8 46 8z" />
    <glyph glyph-name="slash" unicode="/" horiz-adv-x="928" 
d="M796 1433h4q33 0 47 -40q0 -2 1 -11q0 -13 -43 -95q-229 -459 -511 -1021q-120 -241 -126 -248q-17 -18 -36 -18h-3q-31 0 -46 35q-3 12 -3 14q0 16 37 83q234 470 495 989q142 287 148 294q18 18 36 18z" />
    <glyph glyph-name="zero" unicode="0" horiz-adv-x="1306" 
d="M652 1433l6 -1h8q108 0 229 -65q188 -109 283 -352q48 -144 48 -222v-153q0 -72 -45 -215q-35 -94 -92 -178q-117 -165 -290 -223q-75 -23 -133 -23h-8q-3 0 -5 -1l-6 1h-8q-107 0 -228 65q-188 109 -283 352q-48 144 -48 222v153q0 72 45 215q35 94 92 178
q116 165 290 223q75 23 132 23h8q4 0 5 1zM176 715q0 -260 155 -454q141 -160 323 -160q190 0 334 177q142 187 142 440q0 262 -156 455q-141 159 -323 159q-189 0 -333 -177q-142 -187 -142 -440z" />
    <glyph glyph-name="one" unicode="1" horiz-adv-x="985" 
d="M494 1433q34 0 48 -38q2 -10 2 -18v-1276h312q34 0 48 -41q1 -5 1 -10q0 -39 -46 -50h-730q-34 0 -48 40q-1 6 -1 10q0 39 44 51h318v1194q-2 0 -283 -159q-12 -5 -21 -5q-34 0 -48 38q-2 6 -2 14q0 34 59 61q319 182 335 188q9 1 12 1z" />
    <glyph glyph-name="two" unicode="2" horiz-adv-x="1112" 
d="M532 1433q194 0 350 -107q150 -114 150 -296q0 -160 -278 -456q-109 -119 -285 -284l-206 -186v-2q57 0 718 8q33 0 49 -38q0 -3 2 -13q0 -28 -31 -45q-12 -5 -25 -5l-848 -9q-29 0 -45 35l-3 14q0 31 51 71q194 169 415 381q175 177 230 248q126 155 147 231q8 23 8 39
v24q0 139 -141 224q-119 66 -258 66q-141 0 -238 -84q-53 -41 -98 -99q-31 -51 -48 -55q-10 -3 -19 -3q-33 0 -47 39q-1 8 -2 11q0 32 95 134q79 76 119 94q100 63 238 63z" />
    <glyph glyph-name="three" unicode="3" horiz-adv-x="1015" 
d="M487 1433q353 0 434 -222q13 -46 13 -79q0 -202 -359 -420v-1q104 -61 180 -123q180 -153 180 -292v-5q0 -80 -58 -160q-105 -131 -357 -131q-185 0 -411 66q-29 18 -29 45q0 17 15 34q15 15 36 15q4 0 91 -23q169 -38 300 -38q241 2 297 124q18 35 18 72q0 136 -276 310
q-67 39 -122 67q-19 18 -19 39q0 36 65 62q84 46 182 120q169 135 169 239q0 64 -59 125q-91 77 -287 77q-156 0 -358 -47h-5q-30 0 -45 36l-2 13q0 47 77 56q178 41 330 41z" />
    <glyph glyph-name="four" unicode="4" horiz-adv-x="927" 
d="M131 1431q38 0 50 -44v-658h564v649q0 38 39 52q7 1 12 1q35 0 48 -37q3 -7 3 -27v-1302q0 -47 -30 -61q-13 -4 -21 -4q-34 0 -49 38q-2 10 -2 18v571h-608q-44 0 -56 41q-1 6 -1 9v705q0 34 39 48q7 1 12 1z" />
    <glyph glyph-name="five" unicode="5" horiz-adv-x="1064" 
d="M131 1438h711q33 0 48 -36q3 -11 3 -16q0 -30 -35 -47q-10 -3 -16 -3h-660v-590q2 0 2 -1q233 59 401 59q244 0 329 -135q70 -107 70 -250v-5q0 -145 -75 -263q-94 -151 -413 -151h-3q-177 0 -381 42q-32 17 -32 48q0 33 38 47q4 2 11 2h4q207 -37 366 -37q267 0 329 110
q55 87 55 208q0 149 -87 231q-66 50 -202 50h-25q-166 0 -432 -73q-4 -1 -7 -1q-29 0 -47 34q-3 12 -3 17v705q0 39 36 52q8 3 15 3z" />
    <glyph glyph-name="six" unicode="6" horiz-adv-x="1116" 
d="M573 1431h18q135 0 317 -84q58 -29 58 -44q3 0 5 -18v-1q0 -33 -39 -47q-4 0 -8 -1q-15 0 -57 25q-156 75 -291 75q-278 0 -374 -362q-27 -113 -27 -238q0 -60 10 -132h1q63 32 114 54q165 66 313 66q175 0 314 -112q54 -47 68 -77q41 -77 41 -168v-6q0 -142 -82 -233
q-57 -55 -99 -74q-110 -54 -232 -54h-6q-169 0 -298 96q-63 59 -76 83q-45 60 -83 145q-80 197 -80 424q0 259 114 458q22 41 82 106q124 119 297 119zM203 506v-1q0 -22 41 -134q28 -68 71 -131q45 -61 87 -86q96 -59 217 -59q161 0 262 94q60 62 60 175q0 127 -84 183
q-103 81 -243 81h-14q-173 0 -382 -116q0 -2 -15 -6z" />
    <glyph glyph-name="seven" unicode="7" horiz-adv-x="1181" 
d="M1047 1431q39 0 52 -37q2 -9 2 -15q0 -15 -36 -72q-115 -200 -618 -1071q-121 -210 -126 -217q-18 -19 -38 -19h-2q-34 0 -47 41q-1 6 -1 11q0 15 39 78q14 24 552 956q135 233 140 244v1h-835q-35 0 -48 40q-1 5 -1 10q0 38 44 50h923z" />
    <glyph glyph-name="eight" unicode="8" horiz-adv-x="1050" 
d="M516 1431h18q164 0 299 -78q92 -57 127 -156q10 -37 10 -60v-14q0 -141 -216 -309q-65 -47 -138 -98v-1q103 -69 195 -146q159 -140 159 -261v-16q0 -60 -48 -132q-44 -54 -75 -73q-69 -46 -156 -67q-83 -20 -157 -20h-18q-165 0 -299 78q-26 14 -76 64q-52 68 -59 129
q-2 13 -2 21v16q0 141 216 309q65 47 137 98v1q-113 76 -206 157q-147 133 -147 250v14q0 74 60 150q45 48 67 59q41 28 103 51q107 34 206 34zM180 1130q0 -117 239 -281q39 -29 105 -73h2q116 76 220 161q123 108 123 193q0 93 -117 153q-100 48 -227 48q-186 0 -294 -93
q-51 -50 -51 -108zM180 301q0 -93 118 -153q100 -48 227 -48q186 0 294 93q50 50 50 108q0 115 -229 274q-48 36 -114 80h-2q-116 -76 -220 -161q-124 -108 -124 -193z" />
    <glyph glyph-name="nine" unicode="9" horiz-adv-x="1046" 
d="M708 1436h2q105 0 224 -22q32 -18 32 -47v-1318q0 -34 -40 -48q-5 -1 -10 -1q-40 0 -51 46v515h-1q-83 -8 -157 -8q-317 0 -499 160q-128 119 -128 279q0 146 125 273q182 171 503 171zM181 989q0 -164 186 -265q141 -70 346 -70q63 0 152 9v661q-87 12 -164 12
q-287 0 -443 -158q-77 -90 -77 -189z" />
    <glyph glyph-name="colon" unicode=":" horiz-adv-x="407" 
d="M205 247q74 0 114 -79q8 -27 8 -46q0 -74 -79 -114q-27 -8 -46 -8q-74 0 -114 79q-8 27 -8 46q0 74 79 114q27 8 46 8zM205 1000q74 0 114 -79q8 -27 8 -46q0 -74 -79 -114q-27 -8 -46 -8q-74 0 -114 79q-8 27 -8 46q0 74 79 114q27 8 46 8z" />
    <glyph glyph-name="semicolon" unicode=";" horiz-adv-x="408" 
d="M205 1000q74 0 114 -79q8 -27 8 -46q0 -74 -79 -114q-27 -8 -46 -8q-74 0 -114 79q-8 27 -8 46q0 74 79 114q27 8 46 8zM210 207q34 0 54 -43q31 -47 49 -109q15 -51 15 -80v-64q0 -65 -53 -180q-30 -62 -54 -62q-5 -2 -10 -2q-36 0 -50 41l-1 10q0 13 33 72
q37 81 37 153q0 95 -66 196q-3 9 -4 19q0 29 33 46q9 3 17 3z" />
    <glyph glyph-name="semicolon" unicode="&#x37e;" horiz-adv-x="408" 
d="M205 1000q74 0 114 -79q8 -27 8 -46q0 -74 -79 -114q-27 -8 -46 -8q-74 0 -114 79q-8 27 -8 46q0 74 79 114q27 8 46 8zM210 207q34 0 54 -43q31 -47 49 -109q15 -51 15 -80v-64q0 -65 -53 -180q-30 -62 -54 -62q-5 -2 -10 -2q-36 0 -50 41l-1 10q0 13 33 72
q37 81 37 153q0 95 -66 196q-3 9 -4 19q0 29 33 46q9 3 17 3z" />
    <glyph glyph-name="less" unicode="&#x3c;" horiz-adv-x="869" 
d="M745 1203q27 0 42 -33q2 -6 2 -11v-2q0 -28 -42 -55l-543 -442v-2l571 -377q14 -15 14 -31v-2q0 -32 -34 -43q-4 -2 -10 -2q-18 0 -51 25q-592 388 -601 396q-13 15 -13 34q0 25 47 57q556 452 598 483q12 4 20 5z" />
    <glyph glyph-name="equal" unicode="=" horiz-adv-x="990" 
d="M854 1022q39 0 55 -46q1 -6 1 -11q0 -45 -53 -57h-721q-39 0 -55 45q-1 6 -1 12q0 45 53 57h721zM854 725q39 0 55 -46q1 -6 1 -11q0 -44 -51 -58h-723q-39 0 -55 46q-1 6 -1 12q0 43 50 57h724z" />
    <glyph glyph-name="greater" unicode="&#x3e;" horiz-adv-x="869" 
d="M145 1198q41 -31 597 -483q47 -32 47 -57q0 -19 -13 -34q-9 -8 -601 -396q-33 -25 -50 -25q-7 0 -10 2q-35 11 -35 43v2q0 16 14 31l571 377v2l-543 442q-42 27 -42 55v2q0 5 2 11q15 33 43 33q7 -1 20 -5z" />
    <glyph glyph-name="question" unicode="?" horiz-adv-x="933" 
d="M397 1431h11q157 0 290 -98q155 -126 155 -334q0 -145 -80 -242q-64 -68 -130 -68h-6q-24 0 -190 17q-13 1 -33 1h-11q-45 -1 -47 -8v-372q0 -39 -41 -52l-9 -1q-33 0 -48 37q-2 4 -2 11v384q0 66 80 93q40 9 69 9q41 0 224 -19h16q24 0 61 43q46 67 46 158v25
q0 155 -131 251q-98 65 -218 65q-133 0 -203 -72q-20 -27 -20 -54q0 -11 8 -92q0 -28 -32 -46q-10 -3 -18 -4q-34 0 -49 39q-9 79 -9 102v1q0 92 89 159q100 67 228 67zM301 190q51 0 82 -49q12 -21 12 -45v-2q0 -51 -49 -82q-22 -12 -45 -12q-62 0 -90 64q-4 9 -6 31
q0 61 67 91q18 4 29 4z" />
    <glyph glyph-name="at" unicode="@" horiz-adv-x="1615" 
d="M805 1436h5q257 0 467 -170q78 -69 110 -114q148 -198 148 -434v-1q0 -274 -197 -491q-88 -84 -122 -101q-187 -125 -406 -125h-5q-257 0 -467 170q-78 69 -110 114q-148 198 -148 433v1q0 275 197 491q88 85 122 102q187 125 406 125zM180 718q0 -191 112 -353
q65 -91 160 -157q165 -108 356 -108q262 0 458 196q169 186 169 421q0 192 -112 354q-65 91 -160 157q-165 108 -355 108q-263 0 -459 -196q-169 -186 -169 -422zM1125 1143q34 0 48 -38q2 -7 2 -12v-183h121q42 0 55 -39l2 -11q0 -35 -42 -50q-14 -1 -21 -1h-115v-466
q0 -35 -40 -49q-9 -1 -11 -1q-30 0 -46 34q-3 10 -3 16v466h-115q-45 0 -58 33q-3 8 -4 18q0 27 30 45q12 5 29 5h118v183q0 34 38 48q8 2 12 2zM558 916q107 0 198 -77h1v1q0 41 40 54l11 1q35 0 48 -37q3 -7 3 -27v-465q0 -48 -33 -60q-11 -4 -18 -4q-34 0 -49 39
q-2 8 -2 19v41h-2q-89 -76 -198 -76q-128 0 -222 103q-73 87 -73 193q0 120 94 214q91 81 202 81zM364 626v-12q0 -86 76 -149q53 -39 109 -39h16q85 0 147 75q40 52 40 118v2q0 106 -97 169q-45 25 -96 25h-3q-107 0 -169 -101q-23 -45 -23 -88z" />
    <glyph glyph-name="A" unicode="A" horiz-adv-x="1188" 
d="M566 1433q41 0 58 -69q5 -10 357 -962q119 -320 126 -345q1 -7 1 -8q0 -33 -39 -48q-7 -1 -11 -1h-1q-41 0 -57 63l-171 460h-492q-154 -473 -163 -497q-17 -26 -42 -26h-4q-33 0 -47 40q-1 9 -1 11q0 11 143 442q14 49 297 913q17 27 46 27zM567 1227
q-184 -559 -196 -601v-1h420v1q-218 591 -223 601h-1z" />
    <glyph glyph-name="B" unicode="B" horiz-adv-x="966" 
d="M353 1433q316 0 466 -166q67 -84 67 -181q0 -158 -169 -285q-68 -45 -120 -65q-42 -16 -42 -17q126 -40 221 -123q110 -108 110 -229v-1q0 -174 -194 -286q-153 -80 -368 -80h-2q-101 0 -209 18q-33 18 -33 47v1299q0 34 38 48q123 21 235 21zM181 1320v-552h17
q10 0 15 -1q297 0 473 136q99 87 99 186q0 114 -144 189q-117 54 -300 54q-92 -3 -160 -12zM191 662h-10v-552q85 -9 146 -9q282 0 412 142q46 58 46 123q0 117 -148 209q-159 88 -419 88q-7 -1 -27 -1z" />
    <glyph glyph-name="C" unicode="C" horiz-adv-x="1207" 
d="M737 1433q195 0 328 -89q62 -50 62 -106q0 -32 -37 -46q-4 -2 -11 -2h-4q-31 0 -45 36q0 52 -153 92q-70 16 -141 16q-251 0 -406 -172q-151 -186 -151 -434q0 -286 185 -484q150 -145 369 -145q158 0 268 72q28 20 28 42q14 39 46 39h4q34 0 47 -41q1 -5 1 -10
q0 -88 -153 -157q-117 -44 -240 -44h-1q-259 0 -438 175q-76 82 -97 125q-118 195 -118 420q0 306 188 519q76 77 108 92q157 102 361 102z" />
    <glyph glyph-name="D" unicode="D" horiz-adv-x="1153" 
d="M260 1433h14q312 0 538 -178q66 -59 98 -100q116 -146 149 -318q14 -70 14 -140v-2q0 -253 -164 -451q-67 -73 -100 -95q-48 -35 -93 -60q-178 -89 -378 -89h-23q-97 0 -203 20q-32 17 -32 47v1309q0 33 37 47q60 10 143 10zM180 1330v-1220q74 -10 145 -10
q316 0 499 198q148 171 148 399q0 250 -179 440q-201 196 -528 196q-28 0 -85 -3z" />
    <glyph glyph-name="E" unicode="E" horiz-adv-x="1163" 
d="M133 1438h901q35 0 48 -40q1 -6 1 -10q0 -39 -44 -51h-857v-567h723q35 0 49 -39q2 -8 2 -12q0 -34 -38 -48q-9 -3 -13 -3h-723v-567h852q35 0 48 -40q1 -6 1 -10q0 -40 -46 -51h-904q-35 0 -50 36q-3 10 -3 32v1306q0 45 28 58q12 6 25 6z" />
    <glyph glyph-name="F" unicode="F" horiz-adv-x="1158" 
d="M132 1431h897q35 0 48 -40q1 -5 1 -10q0 -39 -44 -51h-852v-564h719q34 0 49 -38q2 -8 2 -12q0 -34 -38 -49q-7 -2 -12 -2h-720v-613q0 -37 -40 -51q-6 -1 -11 -1q-35 0 -48 37q-3 7 -3 27v1304q0 44 28 57q11 6 24 6z" />
    <glyph glyph-name="G" unicode="G" horiz-adv-x="1232" 
d="M768 1431h5q196 0 321 -101q58 -56 58 -118q0 -33 -38 -46l-10 -2q-31 0 -46 34q-4 28 -11 40q-29 35 -61 49q-94 47 -211 47q-290 0 -472 -255q-127 -180 -127 -392q0 -226 166 -410q174 -180 417 -180q148 0 259 65q37 27 37 39v307h-366q-37 0 -52 32q-4 12 -4 17
q0 37 43 49q9 1 17 1h404q39 0 52 -34q3 -8 3 -17v-356q0 -96 -176 -164q-108 -36 -209 -36h-18q-174 0 -337 96q-191 121 -281 332q-51 132 -51 238v60q0 85 43 217q24 67 68 143q37 62 101 133q74 75 116 101q170 111 360 111z" />
    <glyph glyph-name="H" unicode="H" horiz-adv-x="1144" 
d="M130 1431q38 0 50 -44v-621h784v616q0 34 40 48q5 1 10 1q39 0 50 -46v-1336q0 -34 -40 -48q-6 -1 -10 -1q-38 0 -50 44v621h-784v-616q0 -34 -40 -48q-5 -1 -10 -1q-39 0 -50 46v1336q0 34 40 48q5 1 10 1z" />
    <glyph glyph-name="I" unicode="I" horiz-adv-x="1168" 
d="M151 1438h888q34 0 48 -40q1 -5 1 -10q0 -38 -42 -49q-4 -1 -9 -1h-404q1 -15 1 -22v-1194q0 -7 -1 -22h386q34 0 48 -40q1 -5 1 -10q0 -39 -46 -50h-893q-34 0 -48 40q-1 5 -1 10q0 38 42 49q4 1 9 1h403q-1 15 -1 22v1194q0 7 1 22h-385q-35 0 -48 40q-1 5 -1 10
q0 38 42 49q4 1 9 1z" />
    <glyph glyph-name="J" unicode="J" horiz-adv-x="999" 
d="M385 1436h471q63 0 63 -63v-1156q0 -81 -52 -122q-67 -59 -192 -82q-68 -13 -143 -13q-196 0 -328 91q-41 31 -71 73q-53 87 -53 189v5q0 109 52 152q19 14 38 14h274q35 0 49 -42q0 -2 1 -8q0 -36 -41 -50q-7 -1 -11 -1h-250q-9 -9 -12 -67q0 -167 155 -222
q89 -34 202 -34q154 0 253 61q28 21 28 36v1138h-444q-53 6 -53 52q0 33 39 47q11 2 25 2z" />
    <glyph glyph-name="K" unicode="K" horiz-adv-x="1054" 
d="M130 1436q39 0 50 -46v-592h2l713 609q14 11 29 11q32 0 48 -36q2 -7 2 -12v-3q0 -29 -40 -56l-705 -606v-2l728 -602q17 -17 17 -35v-5q0 -31 -37 -45q-4 -2 -11 -2h-3q-23 0 -68 43l-673 555h-2v-563q0 -34 -40 -48q-5 -1 -10 -1q-39 0 -50 46v1340q0 35 40 49
q5 1 10 1z" />
    <glyph glyph-name="L" unicode="L" horiz-adv-x="1044" 
d="M130 1436q40 0 51 -46v-1289h734q35 0 48 -40q1 -6 1 -11q0 -38 -42 -49q-4 -1 -9 -1h-779q-38 0 -51 35q-3 8 -3 15v1337q0 34 40 48q6 1 10 1z" />
    <glyph glyph-name="M" unicode="M" horiz-adv-x="1338" 
d="M128 1436q28 0 62 -41l483 -478q23 21 506 509q16 10 30 10q33 0 47 -37q2 -8 2 -12v-1339q0 -34 -39 -47q-6 -1 -10 -1q-38 0 -50 44v1221h-2q-421 -426 -458 -461q-13 -6 -24 -6q-28 0 -60 39l-434 429h-2v-1218q0 -34 -40 -47q-5 -1 -10 -1q-37 0 -49 43v1343
q0 35 38 48q7 2 10 2z" />
    <glyph glyph-name="N" unicode="N" horiz-adv-x="1108" 
d="M130 1436q34 0 54 -43q515 -810 537 -846q11 -16 204 -322h3v1162q0 35 40 48q5 1 10 1q38 0 49 -42q1 -4 1 -9v-1336q0 -35 -40 -48q-5 -1 -10 -1q-33 0 -54 43q-482 757 -537 846q-4 4 -204 323h-3v-1163q0 -35 -40 -48q-5 -1 -10 -1q-39 0 -50 46v1341q0 35 40 48
q5 1 10 1z" />
    <glyph glyph-name="O" unicode="O" horiz-adv-x="1523" 
d="M757 1434h8q223 0 415 -151q76 -67 110 -114q153 -206 153 -447v-10q0 -237 -148 -440q-62 -82 -147 -145q-181 -127 -383 -127h-8q-223 0 -414 151q-76 67 -111 114q-152 206 -152 447v10q0 237 147 440q63 82 148 145q181 127 382 127zM179 717q0 -237 157 -423
q181 -195 425 -195q236 0 415 183q168 188 168 435q0 237 -157 423q-182 195 -426 195q-236 0 -414 -183q-168 -188 -168 -435z" />
    <glyph glyph-name="P" unicode="P" horiz-adv-x="1078" 
d="M342 1434h4q368 0 558 -216q94 -120 94 -253q0 -196 -190 -334q-185 -121 -472 -121q-47 0 -153 9v1q-2 -1 -3 -1v-470q0 -34 -40 -48q-5 -1 -10 -1q-38 0 -50 45v1319q0 34 40 49q127 21 222 21zM180 1321v-700q74 -10 169 -10q313 0 471 161q78 90 78 188
q0 188 -211 304q-147 70 -332 70q-84 0 -175 -13z" />
    <glyph glyph-name="Q" unicode="Q" horiz-adv-x="1526" 
d="M761 1442h4q222 0 411 -147q82 -70 115 -117q68 -91 96 -163q59 -145 59 -287v-9q0 -248 -160 -457q-19 -23 -53 -61q123 -126 123 -127q7 -12 7 -25q0 -29 -28 -44q-11 -5 -20 -5h-2q-26 0 -65 46q-90 90 -92 90h-1q-181 -132 -392 -132q-220 0 -409 144
q-90 77 -125 128q-149 204 -149 443v9q0 212 120 402q28 49 108 129q86 77 150 107q145 76 303 76zM179 722q0 -240 162 -428q63 -65 88 -79q153 -111 325 -111h18q163 0 313 102v1l-105 108q-8 14 -8 29q0 24 29 43q15 4 20 4q26 0 59 -39l81 -80q42 39 74 85
q112 169 112 365q0 276 -205 473q-170 148 -379 148q-235 0 -413 -181q-171 -190 -171 -440z" />
    <glyph glyph-name="R" unicode="R" horiz-adv-x="1029" 
d="M326 1434h2q299 0 473 -164q67 -69 80 -101q57 -99 57 -203q0 -157 -118 -282q-67 -65 -119 -90q-46 -23 -46 -24q280 -484 291 -504q3 -14 3 -17q0 -33 -39 -48q-7 -1 -11 -1q-36 0 -58 51l-283 487q-109 -28 -225 -28h-5q-66 0 -146 8v-465q0 -37 -37 -51q-7 -2 -12 -2
h-1q-36 0 -49 39q-2 14 -2 18q-1 695 -1 1291v12q0 50 62 57q107 17 184 17zM180 665q0 -3 2 -27v-19q81 -9 153 -9q254 0 405 132q97 99 97 216v14q0 116 -96 220q-149 142 -404 142q-80 0 -157 -13v-656z" />
    <glyph glyph-name="S" unicode="S" horiz-adv-x="1046" 
d="M475 1434q189 0 363 -97q126 -78 126 -160v-4q0 -35 -35 -50q-13 -2 -15 -2q-33 0 -47 39q0 31 -18 45q-24 26 -63 49q-151 82 -309 82q-182 0 -263 -123q-36 -60 -36 -104v-9q0 -127 294 -306q175 -109 283 -184q53 -40 111 -96q100 -107 100 -215v-4q0 -79 -54 -158
q-33 -40 -62 -61q-110 -76 -264 -76q-198 0 -357 96q-30 16 -83 71q-55 68 -55 103q0 33 38 48q7 1 11 1q39 0 54 -52q47 -87 194 -138q96 -31 187 -31q191 0 265 106q28 47 28 96q0 122 -232 273q-49 34 -273 175q-74 47 -157 119q-126 120 -126 227v21q0 83 79 188
q118 131 316 131z" />
    <glyph glyph-name="T" unicode="T" horiz-adv-x="1142" 
d="M1014 1427q34 0 47 -40q1 -5 1 -10q0 -39 -45 -49h-398q2 -13 2 -24v-1245q0 -48 -40 -58q-6 -1 -10 -1h-1q-32 0 -46 36q-3 7 -3 25v1246q0 8 2 21h-393q-36 0 -49 40q-1 5 -1 9q0 39 46 50h888z" />
    <glyph glyph-name="U" unicode="U" horiz-adv-x="1286" 
d="M191 1432q29 0 46 -35l3 -15q-61 -272 -61 -489q0 -439 218 -670q128 -124 275 -124q181 0 310 182q125 194 125 490q0 271 -99 605q0 6 -1 7q0 22 24 41q10 6 26 8q36 0 51 -47q98 -336 98 -613q0 -364 -173 -588q-155 -184 -362 -184h-1q-188 0 -348 159
q-69 76 -94 123q-148 245 -148 608v2q0 242 65 510q16 30 46 30z" />
    <glyph glyph-name="V" unicode="V" horiz-adv-x="1315" 
d="M130 1432q37 0 55 -58q347 -790 461 -1053l62 -139h1q378 1065 390 1102q42 117 47 127q18 21 41 21q32 0 46 -38q1 -1 2 -14q-7 -27 -229 -648q-236 -669 -250 -707q-17 -25 -43 -25q-37 0 -55 55q-24 53 -474 1083q-102 229 -102 236q-1 9 -2 9q0 32 36 47q11 2 14 2z
" />
    <glyph glyph-name="W" unicode="W" horiz-adv-x="1819" 
d="M128 1432h4q33 0 47 -39l342 -1162h1q42 141 334 1153q13 38 23 38q11 10 27 10h7q33 0 47 -39q55 -165 385 -1161h1q5 7 32 123q4 10 244 968q19 76 25 87q19 22 40 22h2q34 0 48 -38q2 -8 2 -12q-22 -93 -277 -1105q-57 -226 -65 -251q-17 -26 -46 -26q-32 0 -48 42
l-389 1174h-1q-4 -6 -37 -123l-308 -1063q-17 -30 -47 -30q-44 0 -57 72q-124 418 -332 1129q-46 151 -52 180q0 35 37 49q4 2 11 2z" />
    <glyph glyph-name="X" unicode="X" horiz-adv-x="1260" 
d="M128 1432h5q28 0 54 -44l443 -588q3 0 80 106q383 509 387 513q15 13 30 13h5q27 0 43 -30q3 -3 5 -20q0 -20 -35 -61l-453 -605l480 -641q6 -9 8 -25q0 -33 -37 -48q-4 -2 -11 -2h-5q-28 0 -54 44l-442 588q-3 0 -81 -106q-383 -509 -387 -513q-15 -13 -30 -13h-5
q-27 0 -43 30q-2 3 -5 20q0 20 35 61l453 605l-480 641q-6 9 -8 25q0 33 37 48q4 2 11 2z" />
    <glyph glyph-name="Y" unicode="Y" horiz-adv-x="1216" 
d="M129 1439q35 0 56 -45q25 -36 458 -708q6 -8 7 -8h2q8 0 22 33l371 707q18 21 40 21h2q31 0 46 -35q3 -13 3 -16q0 -14 -35 -78q-377 -719 -395 -758v-502q0 -28 -30 -45q-9 -5 -21 -5q-37 0 -50 42v517q-2 8 -107 168q-402 623 -416 646q-2 10 -2 14v4q0 32 37 46
q7 2 12 2z" />
    <glyph glyph-name="Z" unicode="Z" horiz-adv-x="1199" 
d="M1067 1439q36 0 51 -40q1 -7 1 -11q0 -21 -30 -58q-726 -1036 -768 -1095l-92 -131v-2h840q35 0 49 -41q1 -5 1 -10q0 -40 -47 -51h-940q-36 0 -51 40q-1 7 -1 11q0 21 29 58q727 1035 769 1095l92 131v2h-840q-35 0 -49 41q-1 5 -1 10q0 39 46 51h941z" />
    <glyph glyph-name="bracketleft" unicode="[" horiz-adv-x="611" 
d="M130 1436h352q34 0 48 -40q1 -5 1 -10q0 -38 -45 -49h-307v-1238h303q34 0 48 -40q1 -5 1 -9q0 -39 -45 -50h-353q-37 0 -50 35q-3 8 -3 15v1332q0 38 35 51q8 3 15 3z" />
    <glyph glyph-name="backslash" unicode="\" horiz-adv-x="928" 
d="M168 1415q6 -7 149 -294q261 -519 494 -989q37 -67 37 -83q0 -2 -3 -14q-15 -35 -45 -35h-3q-19 0 -37 18q-6 7 -125 248q-283 562 -511 1021q-44 82 -44 95q1 9 1 11q14 40 48 40h4q17 0 35 -18z" />
    <glyph glyph-name="bracketright" unicode="]" horiz-adv-x="611" 
d="M496 1433q35 -13 35 -51v-1332q0 -7 -3 -15q-13 -35 -51 -35h-352q-45 11 -45 50q0 4 1 9q13 40 48 40h303v1238h-307q-45 11 -45 49q0 5 1 10q13 40 48 40h352q7 0 15 -3z" />
    <glyph glyph-name="asciicircum" unicode="^" horiz-adv-x="785" 
d="M422 1434q28 0 62 -53q209 -272 216 -285q4 -11 5 -20q0 -30 -35 -47q-9 -2 -13 -2h-4q-29 0 -56 45l-181 235q-10 -8 -249 -262q-17 -18 -37 -18h-2q-33 0 -46 37q-2 4 -2 11v3q0 23 33 52q264 282 279 295q13 9 30 9z" />
    <glyph glyph-name="underscore" unicode="_" horiz-adv-x="1232" 
d="M123 -152q-43 9 -43 46q0 4 1 9q12 37 44 37h984q43 -10 43 -46q0 -5 -1 -9q-12 -37 -44 -37h-984z" />
    <glyph glyph-name="grave" unicode="`" horiz-adv-x="621" 
 />
    <glyph glyph-name="a" unicode="a" horiz-adv-x="1148" 
d="M567 1020h14q157 0 298 -106q75 -65 89 -92h3v105q0 33 39 46q5 1 10 1q38 0 48 -44v-883q0 -33 -39 -46q-5 -1 -9 -1q-37 0 -48 41q-1 3 -1 8v181h-3q-10 -20 -70 -76q-96 -82 -205 -108q-63 -14 -112 -14h-14q-151 0 -291 100q-72 60 -104 106q-92 137 -92 281v14
q0 147 94 283q75 95 143 131q121 73 250 73zM195 528v-4q0 -170 137 -291q109 -86 237 -86h10q149 0 266 114q108 114 108 263v6q0 161 -128 281q-112 94 -246 94h-10q-149 0 -266 -114q-108 -114 -108 -263z" />
    <glyph glyph-name="b" unicode="b" horiz-adv-x="1014" 
d="M130 1439q37 0 49 -42q1 -4 1 -9v-604h1q138 172 330 172q166 0 296 -135q59 -67 83 -127q19 -40 33 -93q11 -53 11 -74v-97q0 -61 -42 -166q-20 -44 -56 -94q-137 -170 -327 -170q-150 0 -275 114q-33 33 -53 59h-1v-113q0 -32 -35 -47q-12 -3 -16 -3q-28 0 -46 33
q-3 12 -3 17v1330q0 34 40 48q5 1 10 1zM183 481v-5q0 -179 131 -302q92 -73 188 -73h16q127 0 231 118q88 115 88 260q0 175 -125 297q-92 80 -194 80h-14q-139 0 -243 -131q-78 -109 -78 -244z" />
    <glyph glyph-name="c" unicode="c" horiz-adv-x="1009" 
d="M618 1020h38q111 0 241 -50q32 -16 32 -47q0 -32 -38 -45l-10 -2q-6 0 -75 25q-85 23 -156 23h-22q-159 0 -302 -99q-42 -33 -68 -70q-81 -112 -81 -250v-11q0 -156 98 -270q46 -45 83 -62q130 -65 273 -65h26q101 0 222 35h1q33 0 47 -36q2 -6 2 -11v-2q0 -35 -43 -48
q-124 -35 -244 -35q-201 0 -364 97q-28 17 -79 69q-79 93 -105 209q-14 67 -14 122q0 182 109 326q44 51 77 76q76 54 135 76q119 45 217 45z" />
    <glyph glyph-name="d" unicode="d" horiz-adv-x="1012" 
d="M882 1436q38 0 50 -44v-1332q0 -32 -35 -47q-12 -3 -16 -3q-28 0 -46 33q-3 12 -3 17v112h-1q-138 -172 -329 -172q-165 0 -296 135q-52 59 -82 124q-44 108 -44 170v96q2 69 42 166q20 44 55 93q137 170 327 170q151 0 276 -114q25 -26 51 -58h1v605q0 35 40 48
q5 1 10 1zM177 477q0 -175 124 -297q93 -79 194 -79h16q124 0 226 112q92 114 92 262v5q0 175 -125 295q-91 79 -195 79h-14q-127 0 -231 -119q-87 -113 -87 -258z" />
    <glyph glyph-name="e" unicode="e" horiz-adv-x="1021" 
d="M547 1027h1q176 0 286 -112q70 -77 100 -210q7 -41 7 -70v-7q0 -72 -25 -122q-17 -20 -42 -20h-695v-1q0 -100 48 -210q51 -102 143 -141q86 -35 195 -35h30q121 0 285 39q34 0 48 -38q1 -3 1 -10q0 -45 -65 -55q-155 -35 -283 -35q-325 0 -434 220q-67 127 -67 289
q0 194 94 336q54 72 117 110q121 72 256 72zM182 583h656q4 0 6 47q0 117 -82 220q-81 79 -212 79q-159 0 -269 -106q-62 -64 -91 -189q-8 -41 -8 -51z" />
    <glyph glyph-name="f" unicode="f" horiz-adv-x="822" 
d="M414 1431h11q157 0 255 -75q62 -54 62 -124v-5q0 -38 -39 -50q-1 -1 -12 -2q-31 0 -47 37l-4 36q-10 26 -39 43q-72 40 -182 40q-128 0 -208 -54q-31 -23 -31 -58v-536h377q45 0 59 -35q2 -9 2 -15v-1q0 -34 -38 -48q-11 -2 -23 -2h-377v-533q0 -35 -40 -48q-5 -1 -10 -1
q-39 0 -50 46v1176q0 97 110 158q100 51 224 51z" />
    <glyph glyph-name="g" unicode="g" horiz-adv-x="995" 
d="M493 1024h8q154 0 280 -116q9 -9 35 -37h1v92q0 34 39 47q4 1 9 1h3q33 0 46 -40q1 -5 1 -10v-1068q0 -128 -124 -216q-118 -77 -273 -77q-183 0 -294 105q-46 50 -60 91q-16 49 -16 87v3q0 34 37 48q10 1 11 2q35 0 48 -41q0 -136 164 -183q53 -14 110 -14q134 0 231 68
q45 32 64 93q4 18 4 46v406h-2q-62 -68 -95 -84q-104 -68 -223 -68q-151 0 -275 107q-54 53 -76 91q-66 114 -66 215v40q0 95 61 205q17 34 76 95q125 112 276 112zM177 591q0 -152 118 -260q91 -73 199 -73h6q127 0 225 98q92 102 92 235q0 166 -135 274q-86 61 -185 61
q-150 0 -253 -128q-67 -94 -67 -207z" />
    <glyph glyph-name="h" unicode="h" horiz-adv-x="870" 
d="M130 1431q39 0 51 -45v-559q2 0 38 22q90 47 199 47q153 0 273 -84q99 -80 99 -184v-578q0 -28 -29 -45q-9 -5 -22 -5q-37 0 -50 42v575q0 73 -58 113q-20 18 -70 39q-68 25 -138 25h-9q-133 0 -201 -76q-32 -37 -32 -106v-563q0 -34 -40 -48q-6 -1 -11 -1q-38 0 -50 45
v1336q0 35 40 49q6 1 10 1z" />
    <glyph glyph-name="i" unicode="i" horiz-adv-x="358" 
d="M178 1309h2q62 0 93 -71q5 -21 5 -34v-3q0 -66 -66 -98q-18 -6 -31 -6h-4q-56 0 -88 63q-9 21 -9 41v3q0 61 61 97q21 8 37 8zM129 1201q0 -42 43 -56h8q34 0 47 43q1 10 1 15q0 46 -45 57h-5q-35 0 -48 -44q-1 -10 -1 -15zM180 1007q31 0 46 -35q1 -10 1 -14v-910
q0 -34 -38 -47q-5 -1 -10 -1q-37 0 -48 41q-1 4 -1 9v908q0 33 36 47q8 2 14 2z" />
    <glyph glyph-name="j" unicode="j" horiz-adv-x="747" 
d="M568 1300h2q60 0 92 -70q5 -21 5 -33v-3q0 -60 -55 -93q-20 -11 -40 -11h-6q-55 0 -86 62q-9 21 -9 42v3q0 67 68 98q17 5 29 5zM520 1194q0 -43 42 -55h8q34 0 47 42l1 16q-7 55 -50 55q-34 0 -47 -44q-1 -8 -1 -14zM574 987h3q31 0 44 -37q2 -8 2 -19v-1142
q0 -126 -153 -174q-52 -15 -110 -15q-150 0 -235 95q-45 59 -45 139q0 81 38 95q10 3 17 4q5 -2 21 -2h149q38 0 50 -38q1 -5 1 -8v-3q0 -33 -40 -46q-10 -1 -18 -1h-120q0 -2 -1 -2l1 -2v-3q0 -87 91 -117q42 -14 93 -14q103 0 155 54q8 14 8 25v1152q0 45 34 58q9 1 15 1z
" />
    <glyph glyph-name="k" unicode="k" horiz-adv-x="835" 
d="M135 1436q37 0 50 -40q1 -6 1 -9v-558h1l503 240l15 3q30 0 48 -35q2 -9 2 -13v-5q0 -37 -67 -61q-454 -218 -477 -231q518 -628 537 -652q7 -12 7 -23v-5q0 -31 -37 -45q-4 -2 -12 -2h-3q-28 0 -61 48q-11 12 -454 549h-2v-548q0 -17 -14 -34q-17 -15 -37 -15
q-39 0 -50 46v676q-5 17 -5 23q0 8 5 23v618q0 29 29 45q9 5 21 5z" />
    <glyph glyph-name="l" unicode="l" horiz-adv-x="259" 
d="M129 1436q38 0 49 -42q1 -3 1 -9v-1337q0 -34 -40 -47q-5 -1 -10 -1q-38 0 -49 46v1341q0 34 40 48q5 1 9 1z" />
    <glyph glyph-name="m" unicode="m" horiz-adv-x="1191" 
d="M129 1026q38 0 49 -43v-18h2q83 59 194 59q103 0 189 -68q11 -11 34 -36h2q90 104 242 104q83 0 162 -48q108 -78 108 -203v-724q0 -35 -39 -48q-5 -1 -10 -1q-38 0 -49 43v717q0 109 -88 148q-45 18 -94 18q-92 0 -155 -65q-31 -41 -31 -87v-208q0 -40 -31 -54
q-13 -4 -18 -4q-33 0 -47 35q-3 10 -3 26v206q0 98 -100 137q-35 14 -82 14q-94 0 -156 -68q-30 -36 -30 -101v-709q0 -17 -14 -33q-16 -15 -35 -15q-39 0 -49 45v932q0 28 28 44q9 5 21 5z" />
    <glyph glyph-name="n" unicode="n" horiz-adv-x="944" 
d="M129 1026q38 0 49 -43v-65q3 0 32 21q103 64 245 64q174 0 307 -97q102 -86 102 -199v-656q0 -36 -38 -50q-7 -1 -11 -1q-34 0 -47 36q-2 4 -2 11v650q0 76 -51 120q-49 52 -174 80q-44 7 -78 7h-22q-137 0 -221 -83q-42 -48 -42 -129v-644q0 -34 -39 -47q-5 -1 -10 -1
q-37 0 -48 41q-1 4 -1 9v928q0 34 39 47q5 1 10 1z" />
    <glyph glyph-name="o" unicode="o" horiz-adv-x="1137" 
d="M562 1026h12q155 0 294 -108q74 -68 89 -94q100 -144 100 -306v-10q0 -171 -111 -320q-60 -70 -97 -95q-133 -93 -275 -93h-12q-154 0 -293 108q-74 68 -89 94q-100 144 -100 306v10q0 171 110 320q61 70 97 95q134 93 275 93zM177 513q0 -187 140 -320q113 -96 251 -96
q179 0 304 152q88 119 88 264q0 187 -141 320q-113 96 -251 96q-178 0 -303 -152q-88 -119 -88 -264z" />
    <glyph glyph-name="p" unicode="p" horiz-adv-x="1006" 
d="M507 1026q164 0 293 -134q53 -59 82 -123q44 -107 44 -169v-96q0 -60 -42 -164q-20 -44 -54 -93q-136 -169 -325 -169q-150 0 -274 114q-25 25 -51 57h-1v-601q0 -34 -40 -47q-5 -1 -10 -1q-37 0 -49 43v1324q0 31 35 46q11 3 15 3q28 0 46 -33q3 -12 3 -16v-112h1
q137 171 327 171zM182 555v-5q0 -174 124 -294q90 -78 194 -78h14q126 0 229 118q87 113 87 257q0 173 -123 294q-93 79 -193 79h-16q-124 0 -224 -111q-92 -114 -92 -260z" />
    <glyph glyph-name="q" unicode="q" horiz-adv-x="1251" 
d="M467 1024q147 0 267 -121q16 -20 22 -25h1v88q0 35 38 48q10 2 11 2q32 0 47 -36q2 -7 2 -12v-1184q0 -46 22 -60q34 -28 93 -28q78 3 99 49q3 9 7 40q14 35 49 35q18 0 38 -22q8 -15 8 -27q0 -107 -113 -157q-43 -14 -65 -14h-53q-42 0 -104 33q-79 52 -79 144v526h-3
q-59 -71 -117 -100q-84 -46 -172 -46q-152 0 -273 125q-77 92 -98 184q-14 53 -14 79v92q0 59 43 159q24 54 86 120q113 108 258 108zM175 590q0 -160 117 -270q80 -64 167 -64h11q133 0 228 134q56 94 56 192v18q0 147 -111 256q-82 70 -171 70h-14q-118 0 -210 -112
q-73 -98 -73 -224z" />
    <glyph glyph-name="r" unicode="r" horiz-adv-x="810" 
d="M130 1024q39 0 51 -44v-81h3q98 59 215 59h22q100 0 198 -51q111 -68 111 -174v-2q0 -34 -38 -48q-7 -2 -11 -2q-37 0 -51 40q0 82 -96 115q-53 21 -130 21q-114 0 -187 -57q-36 -32 -36 -80v-671q0 -34 -41 -48q-5 -1 -10 -1q-34 0 -48 37q-2 9 -2 13v924q0 36 40 49
q6 1 10 1z" />
    <glyph glyph-name="s" unicode="s" horiz-adv-x="805" 
d="M392 1024h2q144 0 268 -69q62 -41 62 -87q-6 -52 -51 -52q-28 0 -43 32q-5 19 -13 19q-24 18 -72 35q-79 24 -154 24q-150 0 -209 -99q-4 -10 -4 -19v-2q0 -81 250 -263q109 -83 185 -153q112 -104 112 -193v-2q0 -55 -46 -112q-79 -83 -231 -83q-149 0 -270 74
q-58 40 -77 91q-2 10 -2 19q0 27 32 42q3 2 17 4q22 0 41 -24q10 -30 45 -53q96 -55 215 -55q133 2 170 67q9 21 9 32q0 78 -248 259q-109 82 -188 154q-112 109 -112 191v10q0 77 95 151q89 62 217 62z" />
    <glyph glyph-name="t" unicode="t" horiz-adv-x="887" 
d="M442 1431h3q31 0 44 -35q3 -7 3 -24v-356h257q46 0 57 -40q1 -5 1 -10v0q0 -32 -37 -46q-10 -2 -20 -2h-258v-862q0 -43 -38 -55l-9 -1h-3q-31 0 -45 35q-3 7 -3 24v859h-258q-43 0 -55 38l-1 10v0q0 35 38 48q8 2 23 2h253v359q0 43 38 55z" />
    <glyph glyph-name="u" unicode="u" horiz-adv-x="950" 
d="M130 1024q35 0 48 -37q2 -4 2 -11v-672q0 -77 53 -122q66 -57 153 -73q43 -11 94 -11h12q153 0 236 95q41 56 41 130v651q0 28 29 45q9 5 21 5q37 0 50 -42q1 -69 1 -105v-818q0 -33 -39 -48q-7 -1 -11 -1q-38 0 -50 44v38q-3 0 -28 -20q-42 -29 -82 -44
q-83 -28 -128 -28h-92q-56 0 -157 36q-42 18 -87 48q-116 88 -116 210v680q0 28 29 45q9 5 21 5z" />
    <glyph glyph-name="v" unicode="v" horiz-adv-x="971" 
d="M130 1022q38 0 54 -56l302 -779h1q305 794 314 814q18 21 41 21q34 0 47 -38l2 -11q0 -12 -58 -157q-297 -777 -305 -794q-18 -22 -43 -22q-39 0 -56 64q-19 45 -304 786q-45 110 -45 124q0 30 35 46q9 2 15 2z" />
    <glyph glyph-name="w" unicode="w" horiz-adv-x="1339" 
d="M128 1022q33 0 47 -39q197 -754 199 -760h2q245 762 249 772q18 27 45 27q37 0 52 -49q267 -696 288 -750h1q152 756 156 770q18 29 43 29q34 0 47 -38q2 -7 2 -11q-185 -933 -189 -943q-16 -30 -46 -30q-38 0 -55 63q-265 687 -285 743q-9 22 -11 23q-3 -3 -51 -156
l-210 -647q-17 -26 -42 -26q-45 0 -55 69q-235 895 -235 905q0 33 38 46z" />
    <glyph glyph-name="x" unicode="x" horiz-adv-x="998" 
d="M126 1022h5q27 0 60 -50q307 -382 309 -382q319 397 337 419q16 13 31 13h5q30 0 44 -36q1 -4 1 -11v-2q0 -23 -38 -63l-318 -399q7 -9 352 -440q4 -13 4 -20v-4q0 -32 -38 -46q-6 -1 -10 -1h-1q-28 0 -56 43l-313 389q-4 -1 -120 -148l-218 -270q-15 -14 -32 -14h-3
q-32 0 -45 36q-2 4 -2 11v2q0 24 34 58l322 404v1q-338 421 -351 440q-5 13 -5 20v4q0 31 38 45q4 1 8 1z" />
    <glyph glyph-name="y" unicode="y" horiz-adv-x="973" 
d="M130 1022h2q39 0 57 -64l288 -727h2q303 727 321 767q17 24 43 24q33 0 48 -37l2 -13q0 -13 -58 -146q-467 -1118 -482 -1151q-20 -56 -33 -64q-16 -11 -32 -11q-32 0 -46 38q-2 7 -2 12q0 13 33 91q145 344 149 357q0 1 -336 851q-6 13 -6 25q0 28 35 46q9 2 15 2z" />
    <glyph glyph-name="z" unicode="z" horiz-adv-x="906" 
d="M775 1022q34 0 49 -36q2 -7 2 -13q0 -20 -26 -53l-575 -819v-2h552q34 0 48 -40q1 -5 1 -10q0 -38 -46 -49h-650q-33 0 -48 36q-2 8 -2 12v1q0 21 30 58l571 814v2h-553q-34 0 -47 40q-1 5 -1 10q0 38 44 49h651z" />
    <glyph glyph-name="braceleft" unicode="{" horiz-adv-x="721" 
d="M380 1432h4q95 0 227 -38q30 -19 30 -45q0 -37 -41 -51q-9 -1 -10 -1q-129 34 -212 34h-1q-68 0 -87 -32q-19 -26 -19 -66q0 -57 47 -204q26 -93 26 -148q0 -85 -47 -144q-31 -30 -97 -49v-1l66 -34q41 -27 53 -61q21 -45 21 -96q0 -67 -50 -223q-14 -50 -14 -85v-3
q0 -57 44 -76q30 -8 58 -8q83 0 212 34q36 0 49 -39l2 -12q0 -31 -36 -48q-130 -36 -219 -36h-6q-146 0 -191 110q-15 41 -15 77q0 62 52 225q12 49 12 80v8q0 63 -41 77q-64 26 -95 58q-22 25 -22 58q0 69 115 99q34 12 34 24q13 26 13 59v8q0 60 -50 220q-21 78 -21 130v2
q0 106 81 166q49 31 128 31z" />
    <glyph glyph-name="bar" unicode="|" horiz-adv-x="260" 
d="M130 1469q39 0 50 -46v-1774q0 -34 -40 -48q-5 -1 -10 -1q-39 0 -50 46v1774q0 34 40 48q5 1 10 1z" />
    <glyph glyph-name="braceright" unicode="}" horiz-adv-x="721" 
d="M469 1401q82 -60 82 -166v-2q0 -52 -21 -130q-51 -160 -51 -220v-8q0 -33 13 -59q0 -12 34 -24q115 -30 115 -99q0 -33 -22 -58q-30 -32 -95 -58q-41 -14 -41 -77v-8q0 -31 12 -80q53 -163 53 -225q0 -36 -15 -77q-45 -110 -192 -110h-6q-88 0 -219 36q-36 17 -36 48
l2 12q14 39 49 39q129 -34 212 -34q28 0 59 8q44 19 44 76v3q0 35 -14 85q-51 156 -51 223q0 51 22 96q12 34 52 61l66 34v1q-66 19 -96 49q-48 59 -48 144q0 55 27 148q46 147 46 204q0 40 -18 66q-19 32 -88 32h-1q-83 0 -212 -34q-1 0 -10 1q-41 14 -41 51q0 26 30 45
q132 38 227 38h4q79 0 128 -31z" />
    <glyph glyph-name="asciitilde" unicode="~" horiz-adv-x="939" 
d="M672 896h23q72 0 150 -61q14 -16 14 -37q0 -30 -35 -46q-12 -3 -15 -3q-20 0 -53 27q-36 19 -66 19h-11q-64 0 -204 -86q-108 -60 -182 -60q-115 0 -206 126q-7 12 -7 27q0 32 37 46q4 2 12 2h4q27 0 56 -43q50 -57 103 -57q60 0 191 79q117 67 189 67z" />
    <glyph glyph-name="exclamdown" unicode="&#xa1;" horiz-adv-x="672" 
 />
    <glyph glyph-name="cent" unicode="&#xa2;" horiz-adv-x="1139" 
 />
    <glyph glyph-name="sterling" unicode="&#xa3;" horiz-adv-x="1020" 
 />
    <glyph glyph-name="currency" unicode="&#xa4;" horiz-adv-x="929" 
 />
    <glyph glyph-name="yen" unicode="&#xa5;" horiz-adv-x="1426" 
 />
    <glyph glyph-name="brokenbar" unicode="&#xa6;" horiz-adv-x="320" 
 />
    <glyph glyph-name="section" unicode="&#xa7;" horiz-adv-x="834" 
 />
    <glyph glyph-name="dieresis" unicode="&#xa8;" horiz-adv-x="741" 
 />
    <glyph glyph-name="copyright" unicode="&#xa9;" horiz-adv-x="1603" 
d="M800 1424h4q255 0 464 -169q76 -68 108 -112q147 -197 147 -430v-1q0 -273 -196 -487q-86 -84 -120 -101q-186 -124 -403 -124h-4q-256 0 -465 169q-76 68 -108 112q-147 197 -147 431v1q0 272 196 487q86 83 120 100q186 124 404 124zM179 713q0 -191 112 -351
q64 -91 158 -155q163 -108 353 -108q260 0 455 194q167 185 167 419q0 190 -112 350q-64 91 -158 155q-163 108 -352 108q-261 0 -456 -194q-167 -185 -167 -418zM852 1233q152 0 256 -66q51 -41 51 -85q0 -33 -37 -48q-10 -2 -13 -2q-35 0 -49 41q0 19 -89 46
q-59 15 -121 15q-247 0 -359 -202q-50 -101 -50 -208v-9q0 -181 125 -315q114 -110 279 -110q122 0 201 50q16 10 16 26q17 33 46 33h1q35 0 48 -39q1 -5 1 -10v-5q0 -65 -110 -116q-95 -38 -204 -38q-198 0 -340 131q-63 66 -81 101q-83 140 -83 296q0 176 105 325
q148 189 407 189z" />
    <glyph glyph-name="ordfeminine" unicode="&#xaa;" horiz-adv-x="648" 
 />
    <glyph glyph-name="guillemotleft" unicode="&#xab;" horiz-adv-x="829" 
 />
    <glyph glyph-name="logicalnot" unicode="&#xac;" horiz-adv-x="1000" 
 />
    <glyph glyph-name="registered" unicode="&#xae;" horiz-adv-x="1612" 
d="M804 1433h4q257 0 467 -170q77 -69 109 -113q148 -198 148 -433v-1q0 -274 -197 -490q-87 -84 -121 -101q-187 -125 -406 -125h-4q-257 0 -467 170q-77 69 -109 113q-148 198 -148 433v1q0 274 197 490q87 84 121 101q187 125 406 125zM180 717q0 -191 112 -353
q65 -91 159 -156q165 -108 355 -108q262 0 458 195q168 186 168 421q0 191 -112 353q-65 91 -159 156q-165 108 -355 108q-262 0 -458 -195q-168 -186 -168 -421zM765 1224q164 0 279 -90q115 -100 115 -233q0 -157 -149 -264q-25 -17 -47 -27v-1q2 -9 103 -164
q96 -152 105 -168q3 -11 3 -16v-3q0 -33 -39 -47q-12 -1 -12 -2q-23 0 -43 27q-191 303 -214 337h-2q-85 -20 -160 -20h-20q-28 0 -73 3v-296q0 -34 -37 -48q-4 -2 -11 -2h-4q-33 0 -46 37q-2 4 -2 11v331q-2 36 -2 40v499q0 48 34 61q125 35 222 35zM610 674q0 -5 1 -17
q45 -4 82 -4q237 0 334 139q32 53 32 105q0 129 -137 196q-69 30 -152 30h-12q-71 0 -148 -20v-429z" />
    <glyph glyph-name="macron" unicode="&#xaf;" horiz-adv-x="670" 
 />
    <glyph glyph-name="degree" unicode="&#xb0;" horiz-adv-x="716" 
 />
    <glyph glyph-name="plusminus" unicode="&#xb1;" horiz-adv-x="1014" 
 />
    <glyph glyph-name="uni00B2" unicode="&#xb2;" horiz-adv-x="1014" 
 />
    <glyph glyph-name="uni00B3" unicode="&#xb3;" horiz-adv-x="1014" 
 />
    <glyph glyph-name="acute" unicode="&#xb4;" horiz-adv-x="621" 
 />
    <glyph glyph-name="mu" unicode="&#xb5;" horiz-adv-x="1180" 
 />
    <glyph glyph-name="paragraph" unicode="&#xb6;" horiz-adv-x="996" 
 />
    <glyph glyph-name="periodcentered" unicode="&#xb7;" horiz-adv-x="410" 
 />
    <glyph glyph-name="periodcentered" unicode="&#x2219;" horiz-adv-x="410" 
 />
    <glyph glyph-name="cedilla" unicode="&#xb8;" horiz-adv-x="568" 
 />
    <glyph glyph-name="uni00B9" unicode="&#xb9;" horiz-adv-x="1014" 
 />
    <glyph glyph-name="ordmasculine" unicode="&#xba;" horiz-adv-x="718" 
 />
    <glyph glyph-name="guillemotright" unicode="&#xbb;" horiz-adv-x="829" 
 />
    <glyph glyph-name="onequarter" unicode="&#xbc;" horiz-adv-x="1708" 
 />
    <glyph glyph-name="onehalf" unicode="&#xbd;" horiz-adv-x="1964" 
 />
    <glyph glyph-name="threequarters" unicode="&#xbe;" horiz-adv-x="1708" 
 />
    <glyph glyph-name="questiondown" unicode="&#xbf;" horiz-adv-x="748" 
 />
    <glyph glyph-name="Agrave" unicode="&#xc0;" horiz-adv-x="1540" 
 />
    <glyph glyph-name="Aacute" unicode="&#xc1;" horiz-adv-x="1540" 
 />
    <glyph glyph-name="Acircumflex" unicode="&#xc2;" horiz-adv-x="1540" 
 />
    <glyph glyph-name="Atilde" unicode="&#xc3;" horiz-adv-x="1540" 
 />
    <glyph glyph-name="Adieresis" unicode="&#xc4;" horiz-adv-x="1540" 
 />
    <glyph glyph-name="Aring" unicode="&#xc5;" horiz-adv-x="1540" 
 />
    <glyph glyph-name="AE" unicode="&#xc6;" horiz-adv-x="2118" 
 />
    <glyph glyph-name="Ccedilla" unicode="&#xc7;" horiz-adv-x="1399" 
 />
    <glyph glyph-name="Egrave" unicode="&#xc8;" horiz-adv-x="1151" 
 />
    <glyph glyph-name="Eacute" unicode="&#xc9;" horiz-adv-x="1151" 
 />
    <glyph glyph-name="Ecircumflex" unicode="&#xca;" horiz-adv-x="1151" 
 />
    <glyph glyph-name="Edieresis" unicode="&#xcb;" horiz-adv-x="1151" 
 />
    <glyph glyph-name="Igrave" unicode="&#xcc;" horiz-adv-x="657" 
 />
    <glyph glyph-name="Iacute" unicode="&#xcd;" horiz-adv-x="657" 
 />
    <glyph glyph-name="Icircumflex" unicode="&#xce;" horiz-adv-x="657" 
 />
    <glyph glyph-name="Idieresis" unicode="&#xcf;" horiz-adv-x="657" 
 />
    <glyph glyph-name="Eth" unicode="&#xd0;" horiz-adv-x="1518" 
 />
    <glyph glyph-name="Ntilde" unicode="&#xd1;" horiz-adv-x="1554" 
 />
    <glyph glyph-name="Ograve" unicode="&#xd2;" horiz-adv-x="1614" 
 />
    <glyph glyph-name="Oacute" unicode="&#xd3;" horiz-adv-x="1614" 
 />
    <glyph glyph-name="Ocircumflex" unicode="&#xd4;" horiz-adv-x="1614" 
 />
    <glyph glyph-name="Otilde" unicode="&#xd5;" horiz-adv-x="1614" 
 />
    <glyph glyph-name="Odieresis" unicode="&#xd6;" horiz-adv-x="1614" 
 />
    <glyph glyph-name="multiply" unicode="&#xd7;" horiz-adv-x="852" 
 />
    <glyph glyph-name="Oslash" unicode="&#xd8;" horiz-adv-x="1614" 
 />
    <glyph glyph-name="Ugrave" unicode="&#xd9;" horiz-adv-x="1501" 
 />
    <glyph glyph-name="Uacute" unicode="&#xda;" horiz-adv-x="1501" 
 />
    <glyph glyph-name="Ucircumflex" unicode="&#xdb;" horiz-adv-x="1501" 
 />
    <glyph glyph-name="Udieresis" unicode="&#xdc;" horiz-adv-x="1501" 
 />
    <glyph glyph-name="Yacute" unicode="&#xdd;" horiz-adv-x="1233" 
 />
    <glyph glyph-name="Thorn" unicode="&#xde;" horiz-adv-x="1120" 
 />
    <glyph glyph-name="germandbls" unicode="&#xdf;" horiz-adv-x="1251" 
 />
    <glyph glyph-name="agrave" unicode="&#xe0;" horiz-adv-x="922" 
 />
    <glyph glyph-name="aacute" unicode="&#xe1;" horiz-adv-x="922" 
 />
    <glyph glyph-name="acircumflex" unicode="&#xe2;" horiz-adv-x="922" 
 />
    <glyph glyph-name="atilde" unicode="&#xe3;" horiz-adv-x="922" 
 />
    <glyph glyph-name="adieresis" unicode="&#xe4;" horiz-adv-x="922" 
 />
    <glyph glyph-name="aring" unicode="&#xe5;" horiz-adv-x="922" 
 />
    <glyph glyph-name="ae" unicode="&#xe6;" horiz-adv-x="1454" 
 />
    <glyph glyph-name="ccedilla" unicode="&#xe7;" horiz-adv-x="905" 
 />
    <glyph glyph-name="egrave" unicode="&#xe8;" horiz-adv-x="909" 
 />
    <glyph glyph-name="eacute" unicode="&#xe9;" horiz-adv-x="909" 
 />
    <glyph glyph-name="ecircumflex" unicode="&#xea;" horiz-adv-x="909" 
 />
    <glyph glyph-name="edieresis" unicode="&#xeb;" horiz-adv-x="909" 
 />
    <glyph glyph-name="igrave" unicode="&#xec;" horiz-adv-x="514" 
 />
    <glyph glyph-name="iacute" unicode="&#xed;" horiz-adv-x="514" 
 />
    <glyph glyph-name="icircumflex" unicode="&#xee;" horiz-adv-x="514" 
 />
    <glyph glyph-name="idieresis" unicode="&#xef;" horiz-adv-x="514" 
 />
    <glyph glyph-name="eth" unicode="&#xf0;" horiz-adv-x="1139" 
 />
    <glyph glyph-name="ntilde" unicode="&#xf1;" horiz-adv-x="1108" 
 />
    <glyph glyph-name="ograve" unicode="&#xf2;" 
 />
    <glyph glyph-name="oacute" unicode="&#xf3;" 
 />
    <glyph glyph-name="ocircumflex" unicode="&#xf4;" 
 />
    <glyph glyph-name="otilde" unicode="&#xf5;" 
 />
    <glyph glyph-name="odieresis" unicode="&#xf6;" 
 />
    <glyph glyph-name="divide" unicode="&#xf7;" horiz-adv-x="1000" 
 />
    <glyph glyph-name="oslash" unicode="&#xf8;" 
 />
    <glyph glyph-name="ugrave" unicode="&#xf9;" horiz-adv-x="1059" 
 />
    <glyph glyph-name="uacute" unicode="&#xfa;" horiz-adv-x="1059" 
 />
    <glyph glyph-name="ucircumflex" unicode="&#xfb;" horiz-adv-x="1059" 
 />
    <glyph glyph-name="udieresis" unicode="&#xfc;" horiz-adv-x="1059" 
 />
    <glyph glyph-name="yacute" unicode="&#xfd;" horiz-adv-x="868" 
 />
    <glyph glyph-name="thorn" unicode="&#xfe;" 
 />
    <glyph glyph-name="ydieresis" unicode="&#xff;" horiz-adv-x="868" 
 />
    <glyph glyph-name="dotlessi" unicode="&#x131;" horiz-adv-x="615" 
 />
    <glyph glyph-name="circumflex" unicode="&#x2c6;" horiz-adv-x="742" 
 />
    <glyph glyph-name="caron" unicode="&#x2c7;" horiz-adv-x="742" 
 />
    <glyph glyph-name="uni02C9" unicode="&#x2c9;" horiz-adv-x="676" 
 />
    <glyph glyph-name="breve" unicode="&#x2d8;" horiz-adv-x="744" 
 />
    <glyph glyph-name="dotaccent" unicode="&#x2d9;" horiz-adv-x="375" 
 />
    <glyph glyph-name="ring" unicode="&#x2da;" horiz-adv-x="515" 
 />
    <glyph glyph-name="ogonek" unicode="&#x2db;" horiz-adv-x="528" 
 />
    <glyph glyph-name="tilde" unicode="&#x2dc;" horiz-adv-x="734" 
 />
    <glyph glyph-name="hungarumlaut" unicode="&#x2dd;" horiz-adv-x="749" 
 />
    <glyph glyph-name="endash" unicode="&#x2013;" horiz-adv-x="1156" 
 />
    <glyph glyph-name="emdash" unicode="&#x2014;" horiz-adv-x="2208" 
 />
    <glyph glyph-name="quoteleft" unicode="&#x2018;" horiz-adv-x="412" 
 />
    <glyph glyph-name="quoteright" unicode="&#x2019;" horiz-adv-x="412" 
 />
    <glyph glyph-name="quotesinglbase" unicode="&#x201a;" horiz-adv-x="412" 
 />
    <glyph glyph-name="quotedblleft" unicode="&#x201c;" horiz-adv-x="765" 
 />
    <glyph glyph-name="quotedblright" unicode="&#x201d;" horiz-adv-x="765" 
 />
    <glyph glyph-name="quotedblbase" unicode="&#x201e;" horiz-adv-x="765" 
 />
    <glyph glyph-name="dagger" unicode="&#x2020;" horiz-adv-x="1033" 
 />
    <glyph glyph-name="daggerdbl" unicode="&#x2021;" horiz-adv-x="1033" 
 />
    <glyph glyph-name="bullet" unicode="&#x2022;" horiz-adv-x="752" 
 />
    <glyph glyph-name="ellipsis" unicode="&#x2026;" horiz-adv-x="1776" 
 />
    <glyph glyph-name="guilsinglleft" unicode="&#x2039;" horiz-adv-x="516" 
 />
    <glyph glyph-name="guilsinglright" unicode="&#x203a;" horiz-adv-x="516" 
 />
    <glyph glyph-name="fraction" unicode="&#x2044;" horiz-adv-x="1184" 
 />
    <glyph glyph-name="fraction" unicode="&#x2215;" horiz-adv-x="1184" 
 />
    <glyph glyph-name="franc" unicode="&#x20a3;" horiz-adv-x="1178" 
 />
    <glyph glyph-name="lira" unicode="&#x20a4;" horiz-adv-x="1020" 
 />
    <glyph glyph-name="peseta" unicode="&#x20a7;" horiz-adv-x="2079" 
 />
    <glyph glyph-name="Euro" unicode="&#x20ac;" horiz-adv-x="1271" 
 />
    <glyph glyph-name="afii61352" unicode="&#x2116;" horiz-adv-x="2271" 
 />
    <glyph glyph-name="trademark" unicode="&#x2122;" horiz-adv-x="1497" 
 />
    <glyph glyph-name="partialdiff" unicode="&#x2202;" horiz-adv-x="1020" 
 />
    <glyph glyph-name="Delta" unicode="&#x2206;" horiz-adv-x="1227" 
 />
    <glyph glyph-name="product" unicode="&#x220f;" horiz-adv-x="1579" 
 />
    <glyph glyph-name="summation" unicode="&#x2211;" horiz-adv-x="1184" 
 />
    <glyph glyph-name="minus" unicode="&#x2212;" horiz-adv-x="1000" 
 />
    <glyph glyph-name="radical" unicode="&#x221a;" horiz-adv-x="1197" 
 />
    <glyph glyph-name="infinity" unicode="&#x221e;" horiz-adv-x="1045" 
 />
    <glyph glyph-name="integral" unicode="&#x222b;" horiz-adv-x="957" 
 />
    <glyph glyph-name="approxequal" unicode="&#x2248;" horiz-adv-x="989" 
 />
    <glyph glyph-name="lessequal" unicode="&#x2264;" horiz-adv-x="1000" 
 />
    <glyph glyph-name="greaterequal" unicode="&#x2265;" horiz-adv-x="1000" 
 />
    <glyph glyph-name="uniF001" unicode="&#xf001;" horiz-adv-x="1073" 
 />
    <glyph glyph-name="uniF001" unicode="&#xfb01;" horiz-adv-x="1073" 
 />
    <glyph glyph-name="uniF002" unicode="&#xf002;" horiz-adv-x="1081" 
 />
    <glyph glyph-name="uniF002" unicode="&#xfb02;" horiz-adv-x="1081" 
 />
    </font>
</defs>
</svg>
